:SAMPLES-PER-SECOND 30
:FULLY-SPECIFIED
:DEGREES
1329
root  1.35403 38.5699 -7.80911 32.825 -72.5354 -46.3091
RightUpLeg  9.35018 -23.7847 12.2984
RightLeg  20.9906 -11.1222 -2.32338
RightFoot  -17.809 -0.412905 -5.17413
RightToes  -4.65663e-010 0 -3.6325e-017
Spine  -6.48617 5.5255 -3.90616
Spine1  16.0738 14.745 -21.5621
HEad  40.6422 40.0156 -9.69446
LeftShoulder1  4.5229 -6.28783 -39.8779
LeftArm  -5.44912 17.2152 0.00311391
LeftForeArm  32.0301 -51.535 -11.5957
LeftHand  -0.244104 0.0205437 5.32207
RightShoulder  5.00637 8.9146 34.3624
RightArm  13.4034 -29.0429 40.9156
RightForeArm  23.2714 39.5872 7.78295
RightHand  -0.0358964 -4.66351 -1.92831
LeftUpLeg  -2.8928 -5.0595 27.1977
LeftLeg  31.3076 -0.00394161 0.341605
LeftFoot  -15.8261 -0.37396 -11.9294
LeftToes  4.18335e-011 1.59304e-011 3.38507e-012
1330
root  1.39166 38.6075 -7.78419 31.5223 -72.3833 -44.8996
RightUpLeg  9.25069 -23.2922 12.1547
RightLeg  20.7974 -11.9005 -2.27074
RightFoot  -17.6791 -0.405065 -5.15482
RightToes  -4.65663e-010 0 -3.6325e-017
Spine  -6.47377 5.49049 -3.86543
Spine1  16.1873 14.6545 -21.361
HEad  41.89 38.9953 -8.83669
LeftShoulder1  4.53364 -6.31506 -39.8605
LeftArm  -7.05289 16.7707 -1.02894
LeftForeArm  31.9556 -49.6796 -10.7739
LeftHand  -0.244104 0.0205437 5.32207
RightShoulder  5.05078 8.96377 34.5574
RightArm  13.3578 -28.5244 40.9688
RightForeArm  23.511 39.5648 7.76058
RightHand  -0.0323643 -4.86134 -1.59971
LeftUpLeg  -3.03786 -4.86124 26.9545
LeftLeg  31.004 -0.401673 0.0825189
LeftFoot  -15.6179 -0.34698 -11.7583
LeftToes  4.18335e-011 1.59304e-011 3.38507e-012
1331
root  1.4346 38.6433 -7.75439 30.4791 -72.2937 -43.7657
RightUpLeg  9.16946 -22.8414 11.9942
RightLeg  20.6177 -12.5515 -2.21314
RightFoot  -17.5555 -0.397114 -5.12663
RightToes  -4.65663e-010 0 -3.6325e-017
Spine  -6.57606 5.47534 -3.94863
Spine1  16.4648 14.5335 -20.869
HEad  43.243 37.9562 -8.07098
LeftShoulder1  4.50981 -6.27456 -39.8101
LeftArm  -8.49403 16.5773 -2.14317
LeftForeArm  31.1946 -48.7459 -10.4415
LeftHand  -0.244104 0.0205437 5.32207
RightShoulder  5.03807 8.9221 34.5903
RightArm  13.4962 -28.199 40.8319
RightForeArm  23.8346 40.3979 7.99531
RightHand  -0.0297958 -5.15617 -1.46262
LeftUpLeg  -3.1325 -4.80062 26.6667
LeftLeg  30.7318 -0.6059 -0.0466904
LeftFoot  -15.4225 -0.322583 -11.6076
LeftToes  4.18335e-011 1.59304e-011 3.38507e-012
1332
root  1.48949 38.6801 -7.72225 29.5937 -72.2556 -42.7937
RightUpLeg  9.0862 -22.5498 11.7678
RightLeg  20.4633 -12.976 -2.11831
RightFoot  -17.4076 -0.38964 -5.12987
RightToes  -4.65663e-010 0 -3.6325e-017
Spine  -6.67926 5.42286 -4.08471
Spine1  16.74 14.3644 -20.3368
HEad  44.6682 36.9704 -7.25109
LeftShoulder1  4.48427 -6.22387 -39.7879
LeftArm  -9.35093 16.6648 -2.89189
LeftForeArm  30.5625 -48.962 -10.581
LeftHand  -0.244104 0.0205437 5.32207
RightShoulder  5.01049 8.87847 34.5116
RightArm  13.8912 -28.1902 40.4098
RightForeArm  25.0321 42.2891 8.52033
RightHand  -0.0283852 -5.46088 -1.00735
LeftUpLeg  -3.20978 -4.77305 26.3551
LeftLeg  30.4621 -0.723625 -0.118215
LeftFoot  -15.2014 -0.297635 -11.4964
LeftToes  4.18335e-011 1.59304e-011 3.38507e-012
1333
root  1.5509 38.7207 -7.6927 29.0213 -72.3151 -42.1377
RightUpLeg  9.02238 -22.1853 11.5563
RightLeg  20.261 -13.34 -1.97303
RightFoot  -17.2187 -0.381608 -5.16363
RightToes  -4.65663e-010 0 -3.6325e-017
Spine  -6.78893 5.34407 -4.1405
Spine1  16.9404 14.2407 -20.0877
HEad  46.0267 36.0686 -6.24226
LeftShoulder1  4.43152 -6.13417 -39.6738
LeftArm  -9.47076 16.945 -3.1385
LeftForeArm  30.7754 -50.3177 -11.1487
LeftHand  -0.244104 0.0205437 5.32207
RightShoulder  4.99356 8.87312 34.3938
RightArm  14.3344 -28.451 39.8662
RightForeArm  27.0723 44.8528 9.25701
RightHand  -0.0297798 -5.58846 -0.168286
LeftUpLeg  -3.21456 -4.56481 26.098
LeftLeg  30.1359 -0.877989 -0.210138
LeftFoot  -14.953 -0.271037 -11.3998
LeftToes  4.18335e-011 1.59304e-011 3.38507e-012
1334
root  1.60359 38.7693 -7.67173 28.8989 -72.4963 -41.926
RightUpLeg  9.03345 -21.4536 11.4571
RightLeg  19.8824 -13.9079 -1.74418
RightFoot  -16.9749 -0.370592 -5.19722
RightToes  -4.65663e-010 0 -3.6325e-017
Spine  -6.99475 5.29587 -4.07196
Spine1  17.1032 14.2586 -20.2272
HEad  47.1878 35.2244 -5.15363
LeftShoulder1  4.32079 -5.96379 -39.3454
LeftArm  -9.06905 17.2104 -3.06474
LeftForeArm  31.5422 -52.247 -11.977
LeftHand  -0.244104 0.0205437 5.32207
RightShoulder  4.94855 8.81388 34.2241
RightArm  14.6198 -28.8475 39.5086
RightForeArm  28.8985 47.4578 10.0999
RightHand  -0.0305747 -5.71161 0.418867
LeftUpLeg  -3.08739 -4.11458 25.9473
LeftLeg  29.6951 -1.09075 -0.333018
LeftFoot  -14.6838 -0.242889 -11.3018
LeftToes  4.18335e-011 1.59304e-011 3.38507e-012
1335
root  1.64241 38.8229 -7.66382 29.1376 -72.7296 -42.005
RightUpLeg  9.04418 -20.3215 11.5029
RightLeg  19.3424 -14.793 -1.41865
RightFoot  -16.695 -0.358021 -5.24172
RightToes  -4.65663e-010 0 -3.6325e-017
Spine  -7.31162 5.2735 -3.99516
Spine1  17.1832 14.3466 -20.557
HEad  48.0392 34.504 -4.32697
LeftShoulder1  4.19304 -5.77614 -38.9109
LeftArm  -8.51698 17.3376 -2.83005
LeftForeArm  32.1402 -53.9076 -12.7602
LeftHand  -0.244104 0.0205437 5.32207
RightShoulder  4.85235 8.65227 33.9693
RightArm  14.766 -29.3203 39.4177
RightForeArm  30.0141 49.7474 10.9584
RightHand  -0.0365813 -6.17298 0.455216
LeftUpLeg  -2.94734 -3.56142 25.8867
LeftLeg  29.1926 -1.307 -0.451789
LeftFoot  -14.4091 -0.215463 -11.2326
LeftToes  4.18335e-011 1.59304e-011 3.38507e-012
1336
root  1.67621 38.8705 -7.66799 29.5633 -72.93 -42.1747
RightUpLeg  8.94365 -18.9907 11.6597
RightLeg  18.7966 -15.8752 -1.03529
RightFoot  -16.4296 -0.347827 -5.32764
RightToes  -4.65663e-010 0 -3.6325e-017
Spine  -7.65378 5.22502 -4.04262
Spine1  17.1001 14.3577 -20.8021
HEad  48.5329 34.0786 -3.939
LeftShoulder1  4.1234 -5.67613 -38.655
LeftArm  -8.14257 17.3091 -2.43057
LeftForeArm  32.339 -54.7752 -13.2097
LeftHand  -0.244104 0.0205437 5.32207
RightShoulder  4.75569 8.50489 33.6572
RightArm  14.9474 -29.8314 39.4196
RightForeArm  30.9184 51.5389 11.6912
RightHand  -0.0457125 -6.73221 0.445566
LeftUpLeg  -2.94463 -3.04553 25.8847
LeftLeg  28.7563 -1.49602 -0.551571
LeftFoot  -14.1653 -0.192924 -11.2319
LeftToes  4.18335e-011 1.59304e-011 3.38507e-012
1337
root  1.71102 38.9077 -7.67965 30.1521 -73.1005 -42.5062
RightUpLeg  8.81678 -17.7137 11.8543
RightLeg  18.2913 -16.8848 -0.618594
RightFoot  -16.1937 -0.339227 -5.44272
RightToes  -4.65663e-010 0 -3.6325e-017
Spine  -7.95906 5.1637 -4.16599
Spine1  16.9385 14.3129 -20.9178
HEad  48.7509 33.9667 -3.79268
LeftShoulder1  4.12356 -5.67384 -38.6669
LeftArm  -8.16009 17.0708 -1.9499
LeftForeArm  32.2455 -54.7328 -13.196
LeftHand  -0.244104 0.0205437 5.32207
RightShoulder  4.71639 8.48905 33.3836
RightArm  15.2336 -30.2252 39.443
RightForeArm  31.7221 52.4951 12.0826
RightHand  -0.0468675 -6.81231 0.78036
LeftUpLeg  -3.00361 -2.58447 25.947
LeftLeg  28.4134 -1.66429 -0.638992
LeftFoot  -13.9665 -0.176191 -11.302
LeftToes  4.18335e-011 1.59304e-011 3.38507e-012
1338
root  1.74378 38.9388 -7.69944 31.0165 -73.3045 -43.2078
RightUpLeg  8.81577 -16.6371 12.0414
RightLeg  17.7551 -17.6203 -0.164054
RightFoot  -15.9678 -0.332316 -5.56202
RightToes  -4.65663e-010 0 -3.6325e-017
Spine  -8.25905 5.16104 -4.24866
Spine1  16.8416 14.3637 -21.0845
HEad  48.802 33.963 -3.67562
LeftShoulder1  4.14023 -5.7023 -38.7078
LeftArm  -8.60517 16.5516 -1.66563
LeftForeArm  31.7032 -53.7417 -12.7137
LeftHand  -0.244104 0.0205437 5.32207
RightShoulder  4.72917 8.5585 33.2635
RightArm  15.4644 -30.3179 39.6496
RightForeArm  31.8281 52.3209 11.9917
RightHand  -0.0387534 -6.41452 1.15748
LeftUpLeg  -2.9529 -2.15325 26.0891
LeftLeg  28.0923 -1.78708 -0.698365
LeftFoot  -13.787 -0.161879 -11.4119
LeftToes  4.18335e-011 1.59304e-011 3.38507e-012
1339
root  1.77164 38.964 -7.73254 32.1997 -73.5608 -44.2833
RightUpLeg  8.88177 -15.7062 12.257
RightLeg  17.2172 -18.1453 0.27823
RightFoot  -15.7605 -0.326313 -5.69556
RightToes  -4.65663e-010 0 -3.6325e-017
Spine  -8.6097 5.2251 -4.34696
Spine1  16.7918 14.5224 -21.3509
HEad  48.6541 33.9485 -3.70389
LeftShoulder1  4.14335 -5.72568 -38.6321
LeftArm  -9.326 15.7285 -1.70726
LeftForeArm  30.4052 -51.6573 -11.7896
LeftHand  -0.244104 0.0205437 5.32207
RightShoulder  4.75517 8.60731 33.32
RightArm  15.4178 -30.0905 40.2014
RightForeArm  30.9943 51.0847 11.4783
RightHand  -0.0332241 -6.09287 1.09151
LeftUpLeg  -2.81479 -1.77721 26.2911
LeftLeg  27.7826 -1.80785 -0.697945
LeftFoot  -13.6159 -0.148084 -11.525
LeftToes  4.18335e-011 1.59304e-011 3.38507e-012
1340
root  1.79509 38.9795 -7.77528 33.5533 -73.8015 -45.507
RightUpLeg  8.87398 -14.8188 12.5518
RightLeg  16.7708 -18.6407 0.628555
RightFoot  -15.5891 -0.32244 -5.84993
RightToes  -4.65663e-010 0 -3.6325e-017
Spine  -9.01084 5.28672 -4.57391
Spine1  16.7395 14.6467 -21.4766
HEad  48.2248 34.0414 -4.07714
LeftShoulder1  4.16016 -5.74946 -38.6958
LeftArm  -10.0991 14.5013 -1.84151
LeftForeArm  28.3019 -48.2283 -10.4555
LeftHand  -0.244104 0.0205437 5.32207
RightShoulder  4.77895 8.6352 33.4252
RightArm  15.0134 -29.6632 41.1273
RightForeArm  29.5852 49.0312 10.689
RightHand  -0.0329826 -6.01401 0.489106
LeftUpLeg  -2.72919 -1.51062 26.5177
LeftLeg  27.5401 -1.72439 -0.640901
LeftFoot  -13.4788 -0.136784 -11.6156
LeftToes  4.18335e-011 1.59304e-011 3.38507e-012
1341
root  1.81585 38.9804 -7.81596 34.8247 -73.9514 -46.6834
RightUpLeg  8.82201 -14.1316 12.8731
RightLeg  16.4963 -19.0244 0.855365
RightFoot  -15.4814 -0.320955 -5.98108
RightToes  -4.65663e-010 0 -3.6325e-017
Spine  -9.43504 5.30918 -4.90091
Spine1  16.7651 14.6864 -21.3608
HEad  47.6303 34.3174 -4.69408
LeftShoulder1  4.21307 -5.76752 -39.1555
LeftArm  -10.6953 12.6591 -1.81606
LeftForeArm  25.4995 -43.1923 -8.79328
LeftHand  -0.244104 0.0205437 5.32207
RightShoulder  4.80992 8.70435 33.4558
RightArm  14.3033 -29.1208 42.4169
RightForeArm  27.8433 46.2816 9.72672
RightHand  -0.0303202 -5.83186 -0.377562
LeftUpLeg  -2.7141 -1.36904 26.765
LeftLeg  27.4435 -1.62021 -0.578455
LeftFoot  -13.4243 -0.132849 -11.6857
LeftToes  4.18335e-011 1.59304e-011 3.38507e-012
